<?xml version="1.0" encoding="utf-8"?>
<svg version="1.1" id="Layer_1" xmlns="http://www.w3.org/2000/svg" height="160" width="390"
	 viewBox="74 35 390 160">
<style type="text/css">
	.st0{fill:#EE2864;}
	.st1{fill:#FCB415;}
	.st2{fill:#146AB4;}
	.st3{fill:#65BC46;}
	.st4{fill:#6C338F;}
	.st5{fill:#FFFFFF;}
</style>
<g>
	<g>
		<path class="st0" d="M216,187.7c-6.2-3.3-10.6-7.1-13.2-11.4c-2.6-4.3-3.9-7.9-3.9-11c0-1.1,0.4-2.1,1.2-2.8
			c0.8-0.7,1.7-1.1,2.9-1.1h15c1,0,1.9,0.3,2.6,0.8c0.7,0.5,1.3,1.4,1.8,2.8c1.2,2.9,3.1,5.4,5.6,7.5c2.5,2.1,6.3,3.1,11.5,3.1
			c6.8,0,11.7-1.5,14.9-4.5c3.2-3,4.7-8.2,4.7-15.6v-11.5c-6.1,7.2-14.7,10.8-25.8,10.8c-11.7,0-20.5-3.5-26.4-10.6
			s-9.1-16.8-9.5-29.1l-0.2-4.6l0.2-4.6c0.4-12,3.7-21.7,9.6-29.1c6-7.3,14.8-11,26.3-11c6,0,11.2,1.1,15.7,3.4
			c4.5,2.3,8.2,5.3,11.1,9.1v-6.6c0-1.2,0.4-2.3,1.3-3c0.8-0.8,1.8-1.2,3-1.2h13.9c1.1,0,2.1,0.4,2.9,1.2c0.8,0.8,1.2,1.8,1.2,3
			l0.2,81.4c0,12.5-3.5,22.2-10.5,29.1c-7,6.9-17.5,10.3-31.6,10.3C230.3,192.7,222.2,191.1,216,187.7z M253.8,130.9
			c3.2-4.1,4.9-9,5.2-14.9c0.1-0.9,0.2-2.7,0.2-5.4c0-2.7-0.1-4.5-0.2-5.4c-0.3-5.9-2.1-10.8-5.2-14.9c-3.2-4.1-7.9-6.1-14.2-6.1
			c-12.2,0-18.6,7.4-19.3,22.3l-0.2,4.1c0,17.6,6.5,26.4,19.4,26.4C246,137,250.7,134.9,253.8,130.9z"/>
		<path class="st0" d="M304.3,153.8c-4.8-2.3-8.6-5.4-11.3-9.4c-2.8-3.9-4.1-8.3-4.1-13c0-7.7,3.1-13.9,9.3-18.6
			c6.2-4.7,14.7-7.9,25.5-9.6l23.1-3.4v-3.5c0-4.8-1.2-8.5-3.7-11c-2.5-2.5-6.4-3.7-11.8-3.7c-3.7,0-6.7,0.7-9,2
			c-2.3,1.4-4.1,2.7-5.5,4.1c-1.4,1.4-2.3,2.3-2.8,2.8c-0.5,1.4-1.3,2-2.5,2h-13.2c-1,0-1.9-0.3-2.6-1c-0.7-0.7-1.1-1.6-1.1-2.7
			c0.1-2.8,1.5-6,4.1-9.5c2.6-3.5,6.7-6.6,12.2-9.3c5.5-2.6,12.3-4,20.4-4c13.3,0,23,3,29.1,9c6.1,6,9.1,13.8,9.1,23.5v53
			c0,1.1-0.4,2.1-1.1,2.9c-0.7,0.8-1.7,1.2-3,1.2h-14c-1.1,0-2.1-0.4-2.9-1.2c-0.8-0.8-1.2-1.7-1.2-2.9v-6.6
			c-2.5,3.6-6,6.6-10.5,8.9c-4.5,2.3-10.1,3.5-16.9,3.5C314.3,157.2,309,156.1,304.3,153.8z M341,134.9c3.9-4.1,5.9-9.9,5.9-17.6
			V114l-16.9,2.7c-13,2-19.4,6.4-19.4,13c0,3.6,1.5,6.4,4.5,8.4c3,2,6.6,3,10.7,3C332,141,337.1,139,341,134.9z"/>
		<path class="st0" d="M391.1,186.6c-0.7-0.7-1.1-1.5-1.1-2.4c0-0.8,0.2-1.7,0.7-2.7l13.3-31.2l-32.4-76.5c-0.5-1-0.7-1.8-0.7-2.4
			c0.1-1,0.5-1.9,1.2-2.6c0.7-0.7,1.5-1.1,2.5-1.1h14c2,0,3.5,1.1,4.4,3.2l22.5,55.1l22.8-55.1c1.1-2.1,2.7-3.2,4.7-3.2h13.7
			c1,0,1.9,0.3,2.5,1s1,1.5,1,2.4c0,0.8-0.2,1.7-0.7,2.7l-47.8,110.6c-0.9,2.1-2.5,3.2-4.7,3.2h-13.5
			C392.6,187.6,391.8,187.3,391.1,186.6z"/>
	</g>
	<g>
		<g>
			<path class="st1" d="M139,140.4c0,5.5,1.5,10.7,4.2,15.2h25.2c8.4,0,15.2-6.8,15.2-15.2v-25.2c-4.4-2.7-9.6-4.2-15.2-4.2
				C152.2,110.9,139,124.1,139,140.4z"/>
			<path class="st2" d="M116.5,140.4c0-28.7,23.3-52,52-52c5.3,0,10.4,0.8,15.2,2.3v-19c-4.9-1.1-10-1.7-15.2-1.7
				c-38.8,0-70.4,31.6-70.4,70.4c0,5.2,0.6,10.3,1.7,15.2h19C117.3,150.8,116.5,145.7,116.5,140.4z"/>
			<path class="st3" d="M118.5,140.4c0,5.3,0.8,10.4,2.4,15.2h20c-2.5-4.5-3.9-9.7-3.9-15.2c0-17.4,14.1-31.5,31.5-31.5
				c5.5,0,10.7,1.4,15.2,3.9v-20c-4.8-1.5-9.9-2.4-15.2-2.4C140.9,90.4,118.5,112.8,118.5,140.4z"/>
			<path class="st4" d="M96,140.4c0-39.9,32.5-72.4,72.4-72.4c5.2,0,10.3,0.6,15.2,1.6V49.8c-4.9-0.8-10-1.3-15.2-1.3
				c-50.7,0-91.9,41.1-91.9,91.9c0,5.2,0.4,10.2,1.3,15.2h19.8C96.6,150.7,96,145.6,96,140.4z"/>
		</g>
		<circle class="st0" cx="168.5" cy="140.4" r="15.2"/>
	</g>
</g>
</svg>
